<svg width="18" height="23" viewBox="0 0 18 23" fill="none" xmlns="http://www.w3.org/2000/svg">
<path d="M2.33333 12.2996V18C2.33333 18.1768 2.40357 18.3464 2.5286 18.4714C2.65362 18.5964 2.82319 18.6667 3 18.6667H15C15.1768 18.6667 15.3464 18.5964 15.4714 18.4714C15.5964 18.3464 15.6667 18.1768 15.6667 18V12.2996M2.83378 4H15.1671C15.3118 4.00022 15.4525 4.04752 15.568 4.13475C15.6834 4.22199 15.7674 4.34442 15.8071 4.48356L17 8.66667H1L2.19467 4.48356C2.23433 4.34471 2.318 4.22249 2.43309 4.13529C2.54819 4.04808 2.68849 4.00061 2.83289 4H2.83378Z" stroke="black" stroke-width="1.6" stroke-linecap="round" stroke-linejoin="round"/>
<path d="M6.33333 8.66699V10.0003M6.33333 10.0003C6.33333 10.7076 6.05238 11.3858 5.55229 11.8859C5.05219 12.386 4.37391 12.667 3.66667 12.667C2.95942 12.667 2.28115 12.386 1.78105 11.8859C1.28095 11.3858 1 10.7076 1 10.0003V8.66699M6.33333 10.0003C6.33333 10.7076 6.61428 11.3858 7.11438 11.8859C7.61448 12.386 8.29276 12.667 9 12.667C9.70724 12.667 10.3855 12.386 10.8856 11.8859C11.3857 11.3858 11.6667 10.7076 11.6667 10.0003M11.6667 8.66699V10.0003M11.6667 10.0003C11.6667 10.7076 11.9476 11.3858 12.4477 11.8859C12.9478 12.386 13.6261 12.667 14.3333 12.667C15.0406 12.667 15.7189 12.386 16.219 11.8859C16.719 11.3858 17 10.7076 17 10.0003V8.66699" stroke="black" stroke-width="1.6" stroke-linecap="round" stroke-linejoin="round"/>
</svg>
