<svg width="18" height="23" viewBox="0 0 18 23" fill="none" xmlns="http://www.w3.org/2000/svg">
<path d="M2.33333 12.2996V18C2.33333 18.1768 2.40357 18.3464 2.5286 18.4714C2.65362 18.5964 2.82319 18.6667 3 18.6667H15C15.1768 18.6667 15.3464 18.5964 15.4714 18.4714C15.5964 18.3464 15.6667 18.1768 15.6667 18V12.2996M2.83378 4H15.1671C15.3118 4.00022 15.4525 4.04752 15.568 4.13475C15.6834 4.22199 15.7674 4.34442 15.8071 4.48356L17 8.66667H1L2.19467 4.48356C2.23433 4.34471 2.318 4.22249 2.43309 4.13529C2.54819 4.04808 2.68849 4.00061 2.83289 4H2.83378Z" stroke="black" stroke-width="1.4" stroke-linecap="round" stroke-linejoin="round"/>
<path d="M6.33333 8.66602V9.99935M6.33333 9.99935C6.33333 10.7066 6.05238 11.3849 5.55229 11.885C5.05219 12.3851 4.37391 12.666 3.66667 12.666C2.95942 12.666 2.28115 12.3851 1.78105 11.885C1.28095 11.3849 1 10.7066 1 9.99935V8.66602M6.33333 9.99935C6.33333 10.7066 6.61428 11.3849 7.11438 11.885C7.61448 12.3851 8.29276 12.666 9 12.666C9.70724 12.666 10.3855 12.3851 10.8856 11.885C11.3857 11.3849 11.6667 10.7066 11.6667 9.99935M11.6667 8.66602V9.99935M11.6667 9.99935C11.6667 10.7066 11.9476 11.3849 12.4477 11.885C12.9478 12.3851 13.6261 12.666 14.3333 12.666C15.0406 12.666 15.7189 12.3851 16.219 11.885C16.719 11.3849 17 10.7066 17 9.99935V8.66602" stroke="black" stroke-width="1.4" stroke-linecap="round" stroke-linejoin="round"/>
</svg>
