<svg width="18" height="24" viewBox="0 0 18 24" fill="none" xmlns="http://www.w3.org/2000/svg">
<path d="M9 4C7.61033 4.00149 6.24497 4.36462 5.03816 5.05368C3.83135 5.74274 2.82465 6.73401 2.11702 7.93003C1.4094 9.12605 1.02522 10.4856 1.00225 11.8751C0.979289 13.2646 1.31833 14.6361 1.98605 15.8549L1 20L5.14512 19.014C6.21423 19.6004 7.40327 19.9348 8.62137 19.9914C9.83947 20.048 11.0544 19.8254 12.1733 19.3406C13.2922 18.8558 14.2855 18.1216 15.0772 17.1942C15.8689 16.2668 16.4382 15.1706 16.7414 13.9895C17.0447 12.8084 17.0739 11.5736 16.8269 10.3795C16.5799 9.18532 16.0632 8.06345 15.3162 7.09959C14.5693 6.13573 13.6118 5.35537 12.5171 4.81816C11.4224 4.28095 10.2194 4.0011 9 4Z" stroke="black" stroke-width="2" stroke-linecap="round" stroke-linejoin="round"/>
<path d="M6.99146 8H4.81099C4.70864 8.00383 4.6117 8.04695 4.54032 8.1204C4.46894 8.19386 4.42862 8.292 4.42773 8.39442C4.52025 10.5839 5.42806 12.6596 6.97285 14.214C8.52881 15.7563 10.6036 16.6637 12.7924 16.7591C12.8896 16.7545 12.9816 16.7139 13.0505 16.6451C13.1193 16.5762 13.16 16.4842 13.1645 16.387V14.2065C13.16 14.1093 13.1193 14.0173 13.0505 13.9484C12.9816 13.8796 12.8896 13.8389 12.7924 13.8344C12.2962 13.8466 11.8022 13.7633 11.3375 13.5888C10.9729 13.4623 10.8017 13.4623 10.4296 13.8344L9.68541 14.5972C9.02572 14.2504 8.42637 13.7993 7.91053 13.2614C7.38121 12.7413 6.93898 12.1396 6.60076 11.4791L7.36355 10.7349C7.50684 10.6384 7.61054 10.4935 7.65565 10.3267C7.70075 10.16 7.68424 9.98254 7.60913 9.82698C7.43472 9.36225 7.35134 8.86832 7.36355 8.37209C7.36355 8.27341 7.32435 8.17876 7.25457 8.10898C7.18478 8.0392 7.09014 8 6.99146 8Z" fill="black"/>
</svg>
