<svg width="22" height="27" viewBox="0 0 22 27" fill="none" xmlns="http://www.w3.org/2000/svg">
<path d="M2.66667 14.3744V21.5C2.66667 21.721 2.75446 21.933 2.91074 22.0893C3.06702 22.2455 3.27899 22.3333 3.5 22.3333H18.5C18.721 22.3333 18.933 22.2455 19.0893 22.0893C19.2455 21.933 19.3333 21.721 19.3333 21.5V14.3744M3.29222 4H18.7089C18.8898 4.00028 19.0656 4.0594 19.21 4.16844C19.3543 4.27748 19.4592 4.43052 19.5089 4.60444L21 9.83333H1L2.49333 4.60444C2.54291 4.43089 2.6475 4.27811 2.79137 4.16911C2.93524 4.0601 3.11061 4.00076 3.29111 4H3.29222Z" stroke="black" stroke-width="1.4" stroke-linecap="round" stroke-linejoin="round"/>
<path d="M7.66667 9.83301V11.4997M7.66667 11.4997C7.66667 12.3837 7.31548 13.2316 6.69036 13.8567C6.06524 14.4818 5.21739 14.833 4.33333 14.833C3.44928 14.833 2.60143 14.4818 1.97631 13.8567C1.35119 13.2316 1 12.3837 1 11.4997V9.83301M7.66667 11.4997C7.66667 12.3837 8.01786 13.2316 8.64298 13.8567C9.2681 14.4818 10.1159 14.833 11 14.833C11.8841 14.833 12.7319 14.4818 13.357 13.8567C13.9821 13.2316 14.3333 12.3837 14.3333 11.4997M14.3333 9.83301V11.4997M14.3333 11.4997C14.3333 12.3837 14.6845 13.2316 15.3096 13.8567C15.9348 14.4818 16.7826 14.833 17.6667 14.833C18.5507 14.833 19.3986 14.4818 20.0237 13.8567C20.6488 13.2316 21 12.3837 21 11.4997V9.83301" stroke="black" stroke-width="1.4" stroke-linecap="round" stroke-linejoin="round"/>
</svg>
