<svg width="18" height="24" viewBox="0 0 18 24" fill="none" xmlns="http://www.w3.org/2000/svg">
<path d="M10.91 7.058C11.6571 7.20413 12.3437 7.56971 12.882 8.10801C13.4203 8.64631 13.7859 9.33288 13.932 10.08M10.91 4C12.4619 4.17419 13.9089 4.86919 15.0149 5.9716C16.1209 7.074 16.8207 8.51872 17 10.07M16.234 16.17V18.47C16.2322 18.8755 16.0703 19.2638 15.7835 19.5505C15.4968 19.8373 15.1085 19.9992 14.703 20.001C14.657 20.001 14.61 20.001 14.563 19.995C12.2061 19.7392 9.94189 18.9347 7.952 17.646C6.10045 16.4729 4.52993 14.9065 3.352 13.058C2.05979 11.0642 1.25603 8.79374 1.006 6.431C1.006 6.386 1 6.339 1 6.294C1.00184 5.88879 1.16363 5.50069 1.45016 5.21416C1.73669 4.92763 2.12479 4.76584 2.53 4.764H4.83C5.20063 4.76183 5.55954 4.89375 5.84054 5.13542C6.12154 5.3771 6.30568 5.71222 6.359 6.079C6.45474 6.81288 6.63355 7.5335 6.892 8.227C6.99493 8.50077 7.01723 8.7983 6.95626 9.08435C6.89529 9.37041 6.75361 9.63299 6.548 9.841L5.578 10.812C6.67037 12.7275 8.25961 14.3126 10.178 15.4L11.15 14.429C11.3586 14.2236 11.6215 14.0822 11.9078 14.0212C12.1941 13.9603 12.4919 13.9824 12.766 14.085C13.461 14.343 14.1829 14.5218 14.918 14.618C15.2898 14.671 15.6294 14.8583 15.8724 15.1447C16.1154 15.431 16.2452 15.7965 16.237 16.172L16.234 16.17Z" stroke="black" stroke-width="1.6" stroke-linecap="round" stroke-linejoin="round"/>
</svg>
