<svg width="26" height="32" viewBox="0 0 26 32" fill="none" xmlns="http://www.w3.org/2000/svg">
<path d="M15.865 8.587C16.9857 8.8062 18.0155 9.35456 18.823 10.162C19.6304 10.9695 20.1788 11.9993 20.398 13.12M15.865 4C18.1928 4.26128 20.3633 5.30379 22.0224 6.9574C23.6814 8.611 24.7311 10.7781 25 13.105M23.851 22.255V25.705C23.8482 26.3132 23.6054 26.8957 23.1753 27.3258C22.7452 27.7559 22.1627 27.9987 21.5545 28.0015C21.4855 28.0015 21.415 28.0015 21.3445 27.9925C17.8091 27.6088 14.4128 26.4021 11.428 24.469C8.65068 22.7093 6.2949 20.3597 4.528 17.587C2.58968 14.5963 1.38404 11.1906 1.009 7.6465C1.009 7.579 1 7.5085 1 7.441C1.00276 6.83318 1.24544 6.25104 1.67524 5.82124C2.10504 5.39144 2.68718 5.14876 3.295 5.146H6.745C7.30094 5.14275 7.8393 5.34063 8.26081 5.70314C8.68231 6.06564 8.95852 6.56834 9.0385 7.1185C9.1821 8.21931 9.45032 9.30025 9.838 10.3405C9.99239 10.7512 10.0258 11.1975 9.93439 11.6265C9.84294 12.0556 9.63041 12.4495 9.322 12.7615L7.867 14.218C9.50555 17.0913 11.8894 19.469 14.767 21.1L16.225 19.6435C16.5379 19.3355 16.9323 19.1232 17.3617 19.0318C17.7912 18.9404 18.2378 18.9736 18.649 19.1275C19.6915 19.5145 20.7744 19.7827 21.877 19.927C22.4347 20.0065 22.944 20.2875 23.3086 20.717C23.6732 21.1466 23.8677 21.6948 23.8555 22.258L23.851 22.255Z" stroke="black" stroke-width="2" stroke-linecap="round" stroke-linejoin="round"/>
</svg>
