<svg width="27" height="30" viewBox="0 0 27 30" fill="none" xmlns="http://www.w3.org/2000/svg">
<path d="M3.3335 16.4493V25C3.3335 25.2652 3.43885 25.5196 3.62639 25.7071C3.81393 25.8946 4.06828 26 4.3335 26H22.3335C22.5987 26 22.8531 25.8946 23.0406 25.7071C23.2281 25.5196 23.3335 25.2652 23.3335 25V16.4493M4.08416 4H22.5842C22.8012 4.00033 23.0123 4.07128 23.1855 4.20213C23.3586 4.33298 23.4845 4.51662 23.5442 4.72533L25.3335 11H1.3335L3.1255 4.72533C3.18499 4.51706 3.31049 4.33374 3.48314 4.20293C3.65578 4.07213 3.86623 4.00091 4.08283 4H4.08416Z" stroke="black" stroke-width="2" stroke-linecap="round" stroke-linejoin="round"/>
<path d="M9.3335 11V13M9.3335 13C9.3335 14.0609 8.91207 15.0783 8.16192 15.8284C7.41178 16.5786 6.39436 17 5.3335 17C4.27263 17 3.25521 16.5786 2.50507 15.8284C1.75492 15.0783 1.3335 14.0609 1.3335 13V11M9.3335 13C9.3335 14.0609 9.75492 15.0783 10.5051 15.8284C11.2552 16.5786 12.2726 17 13.3335 17C14.3944 17 15.4118 16.5786 16.1619 15.8284C16.9121 15.0783 17.3335 14.0609 17.3335 13M17.3335 11V13M17.3335 13C17.3335 14.0609 17.7549 15.0783 18.5051 15.8284C19.2552 16.5786 20.2726 17 21.3335 17C22.3944 17 23.4118 16.5786 24.1619 15.8284C24.9121 15.0783 25.3335 14.0609 25.3335 13V11" stroke="black" stroke-width="2" stroke-linecap="round" stroke-linejoin="round"/>
</svg>
