<svg width="27" height="32" viewBox="0 0 27 32" fill="none" xmlns="http://www.w3.org/2000/svg">
<path d="M13.6667 4C11.5822 4.00224 9.5342 4.54693 7.72399 5.58052C5.91378 6.61411 4.40372 8.10102 3.34228 9.89504C2.28085 11.6891 1.70457 13.7284 1.67013 15.8127C1.63568 17.8969 2.14425 19.9542 3.14582 21.7823L1.66675 28L7.88442 26.5209C9.4881 27.4007 11.2717 27.9021 13.0988 27.9871C14.926 28.072 16.7483 27.7381 18.4267 27.0109C20.105 26.2837 21.595 25.1824 22.7826 23.7913C23.9702 22.4001 24.824 20.7559 25.2789 18.9842C25.7338 17.2126 25.7776 15.3604 25.4071 13.5692C25.0366 11.778 24.2615 10.0952 23.1411 8.64939C22.0206 7.20359 20.5845 6.03306 18.9425 5.22724C17.3004 4.42143 15.4959 4.00165 13.6667 4Z" stroke="black" stroke-width="2" stroke-linecap="round" stroke-linejoin="round"/>
<path d="M10.6549 10H7.38421C7.23068 10.0057 7.08527 10.0704 6.9782 10.1806C6.87114 10.2908 6.81065 10.438 6.80933 10.5916C6.9481 13.8758 8.30981 16.9894 10.627 19.3209C12.9609 21.6345 16.0731 22.9956 19.3563 23.1386C19.5021 23.1318 19.6402 23.0708 19.7434 22.9676C19.8467 22.8644 19.9076 22.7263 19.9144 22.5805V19.3098C19.9076 19.1639 19.8467 19.0259 19.7434 18.9226C19.6402 18.8194 19.5021 18.7584 19.3563 18.7516C18.612 18.7699 17.8711 18.6449 17.174 18.3833C16.627 18.1935 16.3703 18.1935 15.8121 18.7516L14.6958 19.8958C13.7063 19.3756 12.8073 18.699 12.0335 17.8921C11.2395 17.112 10.5762 16.2093 10.0689 15.2186L11.213 14.1023C11.428 13.9576 11.5835 13.7402 11.6512 13.4901C11.7189 13.24 11.6941 12.9738 11.5814 12.7405C11.3198 12.0434 11.1947 11.3025 11.213 10.5581C11.213 10.4101 11.1542 10.2681 11.0496 10.1635C10.9449 10.0588 10.8029 10 10.6549 10Z" fill="black"/>
</svg>
